<svg xmlns="http://www.w3.org/2000/svg" viewBox="0 0 1800 1000">
  <defs>
    <radialGradient id="sky" cx="50%" cy="18%" r="95%">
      <stop offset="0%" stop-color="#06233b"/>
      <stop offset="45%" stop-color="#07101a"/>
      <stop offset="100%" stop-color="#020307"/>
    </radialGradient>
    <linearGradient id="field" x1="0" x2="1">
      <stop offset="0%" stop-color="#092e16"/>
      <stop offset="50%" stop-color="#155b24"/>
      <stop offset="100%" stop-color="#082711"/>
    </linearGradient>
    <linearGradient id="blueGold" x1="0" x2="1">
      <stop offset="0%" stop-color="#00bbff"/>
      <stop offset="50%" stop-color="#ffe797"/>
      <stop offset="100%" stop-color="#0057ff"/>
    </linearGradient>
    <filter id="glow"><feGaussianBlur stdDeviation="4" result="b"/><feMerge><feMergeNode in="b"/><feMergeNode in="SourceGraphic"/></feMerge></filter>
  </defs>
  <rect width="1800" height="1000" fill="url(#sky)"/>
  <g opacity=".75">
    <path d="M-50 500 C250 250 570 180 900 180 C1230 180 1550 250 1850 500 L1800 1000 L0 1000 Z" fill="#05090f"/>
    <path d="M70 530 C370 330 660 270 900 270 C1140 270 1430 330 1730 530" stroke="#00bbff" stroke-opacity=".35" stroke-width="5" fill="none"/>
    <path d="M110 570 C400 390 680 340 900 340 C1120 340 1400 390 1690 570" stroke="#d7aa31" stroke-opacity=".32" stroke-width="4" fill="none"/>
  </g>

  <!-- barra / hinchada -->
  <g transform="translate(0 315)">
    <rect x="0" y="0" width="1800" height="170" fill="#07090f" opacity=".88"/>
    <g opacity=".75">
      <circle cx="90" cy="58" r="15" fill="#d7aa31"/><circle cx="130" cy="74" r="14" fill="#00bbff"/><circle cx="175" cy="58" r="15" fill="#fff"/>
      <circle cx="250" cy="68" r="15" fill="#00bbff"/><circle cx="300" cy="58" r="14" fill="#d7aa31"/><circle cx="348" cy="75" r="16" fill="#fff"/>
      <circle cx="520" cy="55" r="14" fill="#d7aa31"/><circle cx="570" cy="72" r="16" fill="#00bbff"/><circle cx="630" cy="60" r="14" fill="#fff"/>
      <circle cx="780" cy="70" r="15" fill="#00bbff"/><circle cx="835" cy="55" r="14" fill="#d7aa31"/><circle cx="900" cy="70" r="17" fill="#fff"/>
      <circle cx="1060" cy="58" r="15" fill="#d7aa31"/><circle cx="1115" cy="74" r="15" fill="#00bbff"/><circle cx="1175" cy="56" r="14" fill="#fff"/>
      <circle cx="1350" cy="70" r="15" fill="#00bbff"/><circle cx="1410" cy="58" r="14" fill="#d7aa31"/><circle cx="1480" cy="73" r="16" fill="#fff"/>
      <circle cx="1600" cy="56" r="15" fill="#d7aa31"/><circle cx="1660" cy="76" r="15" fill="#00bbff"/><circle cx="1720" cy="58" r="14" fill="#fff"/>
    </g>
    <g opacity=".45" stroke="url(#blueGold)" stroke-width="6">
      <path d="M0 140 C260 90 430 160 690 115 C980 65 1200 155 1800 105" fill="none"/>
    </g>
  </g>

  <!-- fuegos artificiales -->
  <g filter="url(#glow)" opacity=".95">
    <g transform="translate(310 150)" stroke="#00bbff" stroke-width="5">
      <line x1="0" y1="-55" x2="0" y2="-105"/><line x1="0" y1="55" x2="0" y2="105"/><line x1="-55" y1="0" x2="-105" y2="0"/><line x1="55" y1="0" x2="105" y2="0"/>
      <line x1="-38" y1="-38" x2="-78" y2="-78"/><line x1="38" y1="-38" x2="78" y2="-78"/><line x1="-38" y1="38" x2="-78" y2="78"/><line x1="38" y1="38" x2="78" y2="78"/>
    </g>
    <g transform="translate(1390 120)" stroke="#ffe797" stroke-width="5">
      <line x1="0" y1="-50" x2="0" y2="-95"/><line x1="0" y1="50" x2="0" y2="95"/><line x1="-50" y1="0" x2="-95" y2="0"/><line x1="50" y1="0" x2="95" y2="0"/>
      <line x1="-35" y1="-35" x2="-72" y2="-72"/><line x1="35" y1="-35" x2="72" y2="-72"/><line x1="-35" y1="35" x2="-72" y2="72"/><line x1="35" y1="35" x2="72" y2="72"/>
    </g>
    <g transform="translate(900 100)" stroke="#ffffff" stroke-opacity=".75" stroke-width="4">
      <line x1="0" y1="-40" x2="0" y2="-78"/><line x1="0" y1="40" x2="0" y2="78"/><line x1="-40" y1="0" x2="-78" y2="0"/><line x1="40" y1="0" x2="78" y2="0"/>
      <line x1="-28" y1="-28" x2="-58" y2="-58"/><line x1="28" y1="-28" x2="58" y2="-58"/><line x1="-28" y1="28" x2="-58" y2="58"/><line x1="28" y1="28" x2="58" y2="58"/>
    </g>
  </g>

  <!-- campo -->
  <path d="M0 640 C420 530 710 575 900 590 C1140 610 1390 540 1800 650 L1800 1000 L0 1000 Z" fill="url(#field)" opacity=".9"/>
  <g opacity=".28" stroke="#fff" stroke-width="4" fill="none">
    <rect x="135" y="650" width="1530" height="290" rx="20"/>
    <line x1="900" y1="650" x2="900" y2="940"/>
    <circle cx="900" cy="795" r="80"/>
  </g>
</svg>